<svg width="16" height="16" viewBox="0 0 16 16" fill="none" xmlns="http://www.w3.org/2000/svg">
<path d="M8.00037 0.5C8.24901 0.5 8.48746 0.598772 8.66328 0.774588C8.8391 0.950403 8.93787 1.18886 8.93787 1.4375V7.0625H14.5629C14.8115 7.0625 15.05 7.16127 15.2258 7.33709C15.4016 7.5129 15.5004 7.75136 15.5004 8C15.5004 8.24864 15.4016 8.4871 15.2258 8.66291C15.05 8.83873 14.8115 8.9375 14.5629 8.9375H8.93787V14.5625C8.93787 14.8111 8.8391 15.0496 8.66328 15.2254C8.48746 15.4012 8.24901 15.5 8.00037 15.5C7.75173 15.5 7.51327 15.4012 7.33745 15.2254C7.16164 15.0496 7.06287 14.8111 7.06287 14.5625V8.9375H1.43787C1.18923 8.9375 0.950769 8.83873 0.774954 8.66291C0.599138 8.4871 0.500366 8.24864 0.500366 8C0.500366 7.75136 0.599138 7.5129 0.774954 7.33709C0.950769 7.16127 1.18923 7.0625 1.43787 7.0625H7.06287V1.4375C7.06287 1.18886 7.16164 0.950403 7.33745 0.774588C7.51327 0.598772 7.75173 0.5 8.00037 0.5Z" fill="white"/>
</svg>
