<svg width="13" height="10" viewBox="0 0 13 10" fill="none" xmlns="http://www.w3.org/2000/svg">
<path d="M10.455 0.455001L10.425 0.488001L5.21552 7.1255L2.07602 3.9845C1.86276 3.78578 1.58069 3.6776 1.28924 3.68274C0.997784 3.68788 0.719706 3.80595 0.513587 4.01207C0.307467 4.21819 0.1894 4.49627 0.184257 4.78772C0.179115 5.07917 0.287299 5.36124 0.486019 5.5745L4.45502 9.545C4.56194 9.65173 4.68927 9.73583 4.8294 9.79228C4.96952 9.84873 5.11959 9.87639 5.27064 9.87359C5.42169 9.87079 5.57062 9.83759 5.70856 9.77599C5.84651 9.71438 5.97062 9.62562 6.07352 9.515L12.0615 2.03C12.2654 1.816 12.3769 1.53035 12.3719 1.2348C12.3668 0.939261 12.2457 0.657573 12.0346 0.450643C11.8235 0.243712 11.5395 0.128164 11.2439 0.128979C10.9483 0.129795 10.6649 0.246908 10.455 0.455001Z" fill="#F47E25"/>
</svg>
