<svg width="1510" height="921" viewBox="0 0 1510 921" fill="none" xmlns="http://www.w3.org/2000/svg">
<g clip-path="url(#clip0_15_981)">
<path d="M482.527 194.071C524.263 167.942 569.091 149.213 617.01 137.883L653.734 225.778C611.467 250.637 566.639 269.367 519.25 281.966L482.527 194.071Z" fill="#EBE8FF"/>
<path d="M498.526 178.987C506.285 174.326 510.393 172.174 517.259 169.341L501.763 132.251L557.445 108.987L572.567 145.179C579.641 142.659 585.882 140.634 593.529 140.13L575.929 98.2819C574.046 94.0505 569.976 91.1325 565.135 90.6095L562.185 90.2784C553.577 89.4024 544.754 90.6884 536.622 94.0863L512.748 104.061C503.402 107.966 499.561 110.48 491.618 117.835L483.733 126.802C480.896 130.06 479.957 134.452 481.352 138.343L498.526 178.987Z" fill="#EBE8FF"/>
</g>
<g clip-path="url(#clip1_15_981)">
<path d="M193.527 441.071C235.263 414.942 280.091 396.213 328.01 384.883L364.734 472.778C322.467 497.637 277.639 516.367 230.25 528.966L193.527 441.071Z" fill="#EBE8FF"/>
<path d="M209.526 425.987C217.285 421.326 221.393 419.174 228.259 416.341L212.763 379.251L268.445 355.987L283.567 392.179C290.641 389.659 296.882 387.634 304.529 387.13L286.929 345.282C285.046 341.051 280.976 338.133 276.135 337.609L273.185 337.278C264.577 336.402 255.754 337.688 247.622 341.086L223.748 351.061C214.402 354.966 210.561 357.48 202.618 364.835L194.733 373.802C191.896 377.06 190.957 381.452 192.352 385.343L209.526 425.987Z" fill="#EBE8FF"/>
</g>
<g clip-path="url(#clip2_15_981)">
<path d="M31.5267 713.071C73.263 686.942 118.091 668.213 166.01 656.883L202.734 744.778C160.467 769.637 115.639 788.367 68.2502 800.966L31.5267 713.071Z" fill="#EBE8FF"/>
<path d="M47.5256 697.987C55.2849 693.326 59.3928 691.174 66.2594 688.341L50.7628 651.251L106.445 627.987L121.567 664.179C128.641 661.659 134.882 659.634 142.529 659.13L124.929 617.282C123.046 613.051 118.976 610.133 114.135 609.609L111.185 609.278C102.577 608.402 93.7542 609.688 85.6216 613.086L61.7484 623.061C52.4024 626.966 48.5611 629.48 40.6182 636.835L32.7326 645.802C29.8955 649.06 28.9573 653.452 30.3516 657.343L47.5256 697.987Z" fill="#EBE8FF"/>
</g>
<g clip-path="url(#clip3_15_981)">
<path d="M31.5267 122.071C73.263 95.9423 118.091 77.2128 166.01 65.8827L202.734 153.778C160.467 178.637 115.639 197.367 68.2502 209.966L31.5267 122.071Z" fill="#EBE8FF"/>
<path d="M47.5256 106.987C55.2849 102.326 59.3928 100.174 66.2594 97.3412L50.7628 60.2512L106.445 36.9865L121.567 73.1787C128.641 70.6592 134.882 68.6336 142.529 68.1296L124.929 26.2819C123.046 22.0505 118.976 19.1325 114.135 18.6095L111.185 18.2784C102.577 17.4024 93.7542 18.6884 85.6216 22.0863L61.7484 32.0608C52.4024 35.9656 48.5611 38.4797 40.6182 45.8348L32.7326 54.8023C29.8955 58.0604 28.9573 62.4525 30.3516 66.3428L47.5256 106.987Z" fill="#EBE8FF"/>
</g>
<g clip-path="url(#clip4_15_981)">
<path d="M545.368 614.271C587.389 588.602 632.42 570.366 680.461 559.563L716.217 647.856C673.68 672.25 628.649 690.486 581.124 702.564L545.368 614.271Z" fill="#EBE8FF"/>
<path d="M561.532 599.363C569.342 594.788 573.473 592.681 580.371 589.924L565.282 552.666L621.217 530.014L635.94 566.37C643.042 563.929 649.304 561.972 656.956 561.552L639.817 519.513C637.98 515.262 633.943 512.299 629.109 511.723L626.162 511.359C617.564 510.389 608.728 511.578 600.558 514.886L576.577 524.598C567.189 528.4 563.32 530.872 555.297 538.139L547.313 547.019C544.441 550.246 543.454 554.628 544.806 558.533L561.532 599.363Z" fill="#EBE8FF"/>
</g>
<g clip-path="url(#clip5_15_981)">
<path d="M294.527 828.071C336.263 801.942 381.091 783.213 429.01 771.883L465.734 859.778C423.467 884.637 378.639 903.367 331.25 915.966L294.527 828.071Z" fill="#EBE8FF"/>
<path d="M310.526 812.987C318.285 808.326 322.393 806.174 329.259 803.341L313.763 766.251L369.445 742.987L384.567 779.179C391.641 776.659 397.882 774.634 405.529 774.13L387.929 732.282C386.046 728.051 381.976 725.133 377.135 724.609L374.185 724.278C365.577 723.402 356.754 724.688 348.622 728.086L324.748 738.061C315.402 741.966 311.561 744.48 303.618 751.835L295.733 760.802C292.896 764.06 291.957 768.452 293.352 772.343L310.526 812.987Z" fill="#EBE8FF"/>
</g>
<g clip-path="url(#clip6_15_981)">
<path d="M1009.53 165.071C1051.26 138.942 1096.09 120.213 1144.01 108.883L1180.73 196.778C1138.47 221.637 1093.64 240.367 1046.25 252.966L1009.53 165.071Z" fill="#EBE8FF"/>
<path d="M1025.53 149.987C1033.28 145.326 1037.39 143.174 1044.26 140.341L1028.76 103.251L1084.45 79.9865L1099.57 116.179C1106.64 113.659 1112.88 111.634 1120.53 111.13L1102.93 69.2819C1101.05 65.0505 1096.98 62.1325 1092.14 61.6095L1089.19 61.2784C1080.58 60.4024 1071.75 61.6884 1063.62 65.0863L1039.75 75.0608C1030.4 78.9656 1026.56 81.4797 1018.62 88.8348L1010.73 97.8023C1007.9 101.06 1006.96 105.452 1008.35 109.343L1025.53 149.987Z" fill="#EBE8FF"/>
</g>
<g clip-path="url(#clip7_15_981)">
<path d="M830.527 420.071C872.263 393.942 917.091 375.213 965.01 363.883L1001.73 451.778C959.467 476.637 914.639 495.367 867.25 507.966L830.527 420.071Z" fill="#EBE8FF"/>
<path d="M846.526 404.987C854.285 400.326 858.393 398.174 865.259 395.341L849.763 358.251L905.445 334.987L920.567 371.179C927.641 368.659 933.882 366.634 941.529 366.13L923.929 324.282C922.046 320.051 917.976 317.133 913.135 316.609L910.185 316.278C901.577 315.402 892.754 316.688 884.622 320.086L860.748 330.061C851.402 333.966 847.561 336.48 839.618 343.835L831.733 352.802C828.896 356.06 827.957 360.452 829.352 364.343L846.526 404.987Z" fill="#EBE8FF"/>
</g>
<g clip-path="url(#clip8_15_981)">
<path d="M1170.53 542.071C1212.26 515.942 1257.09 497.213 1305.01 485.883L1341.73 573.778C1299.47 598.637 1254.64 617.367 1207.25 629.966L1170.53 542.071Z" fill="#EBE8FF"/>
<path d="M1186.53 526.987C1194.28 522.326 1198.39 520.174 1205.26 517.341L1189.76 480.251L1245.45 456.987L1260.57 493.179C1267.64 490.659 1273.88 488.634 1281.53 488.13L1263.93 446.282C1262.05 442.051 1257.98 439.133 1253.14 438.609L1250.19 438.278C1241.58 437.402 1232.75 438.688 1224.62 442.086L1200.75 452.061C1191.4 455.966 1187.56 458.48 1179.62 465.835L1171.73 474.802C1168.9 478.06 1167.96 482.452 1169.35 486.343L1186.53 526.987Z" fill="#EBE8FF"/>
</g>
<g clip-path="url(#clip9_15_981)">
<path d="M1315.53 786.071C1357.26 759.942 1402.09 741.213 1450.01 729.883L1486.73 817.778C1444.47 842.637 1399.64 861.367 1352.25 873.966L1315.53 786.071Z" fill="#EBE8FF"/>
<path d="M1331.53 770.987C1339.28 766.326 1343.39 764.174 1350.26 761.341L1334.76 724.251L1390.45 700.987L1405.57 737.179C1412.64 734.659 1418.88 732.634 1426.53 732.13L1408.93 690.282C1407.05 686.051 1402.98 683.133 1398.14 682.609L1395.19 682.278C1386.58 681.402 1377.75 682.688 1369.62 686.086L1345.75 696.061C1336.4 699.966 1332.56 702.48 1324.62 709.835L1316.73 718.802C1313.9 722.06 1312.96 726.452 1314.35 730.343L1331.53 770.987Z" fill="#EBE8FF"/>
</g>
<g clip-path="url(#clip10_15_981)">
<path d="M881.543 612.803C905.011 598.091 930.225 587.556 957.184 581.199L977.919 630.828C954.152 644.824 928.938 655.358 902.278 662.432L881.543 612.803Z" fill="#E3E0F4"/>
<path d="M890.535 604.303C894.898 601.679 897.208 600.468 901.07 598.875L892.321 577.932L923.639 564.847L932.178 585.282C936.157 583.866 939.668 582.728 943.971 582.449L934.034 558.821C932.97 556.431 930.678 554.781 927.953 554.483L926.293 554.293C921.447 553.792 916.483 554.511 911.909 556.423L898.481 562.033C893.224 564.229 891.065 565.645 886.6 569.789L882.169 574.844C880.575 576.68 880.05 579.158 880.838 581.354L890.535 604.303Z" fill="#E3E0F4"/>
</g>
<g clip-path="url(#clip11_15_981)">
<path d="M1161.54 835.803C1185.01 821.091 1210.22 810.556 1237.18 804.199L1257.92 853.828C1234.15 867.824 1208.94 878.358 1182.28 885.432L1161.54 835.803Z" fill="#E3E0F4"/>
<path d="M1170.53 827.303C1174.9 824.679 1177.21 823.468 1181.07 821.875L1172.32 800.932L1203.64 787.847L1212.18 808.282C1216.16 806.866 1219.67 805.728 1223.97 805.449L1214.03 781.821C1212.97 779.431 1210.68 777.781 1207.95 777.483L1206.29 777.293C1201.45 776.792 1196.48 777.511 1191.91 779.423L1178.48 785.033C1173.22 787.229 1171.06 788.645 1166.6 792.789L1162.17 797.844C1160.58 799.68 1160.05 802.158 1160.84 804.354L1170.53 827.303Z" fill="#E3E0F4"/>
</g>
<g clip-path="url(#clip12_15_981)">
<path d="M609.543 842.803C633.011 828.091 658.225 817.556 685.184 811.199L705.919 860.828C682.152 874.824 656.938 885.358 630.278 892.432L609.543 842.803Z" fill="#E3E0F4"/>
<path d="M618.535 834.303C622.898 831.679 625.208 830.468 629.07 828.875L620.321 807.932L651.639 794.847L660.178 815.282C664.157 813.866 667.668 812.728 671.971 812.449L662.034 788.821C660.97 786.431 658.678 784.781 655.953 784.483L654.293 784.293C649.447 783.792 644.483 784.511 639.909 786.423L626.481 792.033C621.224 794.229 619.065 795.645 614.6 799.789L610.169 804.844C608.575 806.68 608.05 809.158 608.838 811.354L618.535 834.303Z" fill="#E3E0F4"/>
</g>
<g clip-path="url(#clip13_15_981)">
<path d="M536.543 398.803C560.011 384.091 585.225 373.556 612.184 367.199L632.919 416.828C609.152 430.824 583.938 441.358 557.278 448.432L536.543 398.803Z" fill="#E3E0F4"/>
<path d="M545.535 390.303C549.898 387.679 552.208 386.468 556.07 384.875L547.321 363.932L578.639 350.847L587.178 371.282C591.157 369.866 594.668 368.728 598.971 368.449L589.034 344.821C587.97 342.431 585.678 340.781 582.953 340.483L581.293 340.293C576.447 339.792 571.483 340.511 566.909 342.423L553.481 348.033C548.224 350.229 546.065 351.645 541.6 355.789L537.169 360.844C535.575 362.68 535.05 365.158 535.838 367.354L545.535 390.303Z" fill="#E3E0F4"/>
</g>
<g clip-path="url(#clip14_15_981)">
<path d="M755.543 155.803C779.011 141.091 804.225 130.556 831.184 124.199L851.919 173.828C828.152 187.824 802.938 198.358 776.278 205.432L755.543 155.803Z" fill="#E3E0F4"/>
<path d="M764.535 147.303C768.898 144.679 771.208 143.468 775.07 141.875L766.321 120.932L797.639 107.847L806.178 128.282C810.157 126.866 813.668 125.728 817.971 125.449L808.034 101.821C806.97 99.4313 804.678 97.7815 801.953 97.4826L800.293 97.2934C795.447 96.7924 790.483 97.5113 785.909 99.4225L772.481 105.033C767.224 107.229 765.065 108.645 760.6 112.789L756.169 117.844C754.575 119.68 754.05 122.158 754.838 124.354L764.535 147.303Z" fill="#E3E0F4"/>
</g>
<g clip-path="url(#clip15_15_981)">
<path d="M279.543 170.803C303.011 156.091 328.225 145.556 355.184 139.199L375.919 188.828C352.152 202.824 326.938 213.358 300.278 220.432L279.543 170.803Z" fill="#E3E0F4"/>
<path d="M288.535 162.303C292.898 159.679 295.208 158.468 299.07 156.875L290.321 135.932L321.639 122.847L330.178 143.282C334.157 141.866 337.668 140.728 341.971 140.449L332.034 116.821C330.97 114.431 328.678 112.781 325.953 112.483L324.293 112.293C319.447 111.792 314.483 112.511 309.909 114.423L296.481 120.033C291.224 122.229 289.065 123.645 284.6 127.789L280.169 132.844C278.575 134.68 278.05 137.158 278.838 139.354L288.535 162.303Z" fill="#E3E0F4"/>
</g>
<g clip-path="url(#clip16_15_981)">
<path d="M314.543 622.803C338.011 608.091 363.225 597.556 390.184 591.199L410.919 640.828C387.152 654.824 361.938 665.358 335.278 672.432L314.543 622.803Z" fill="#E3E0F4"/>
<path d="M323.535 614.303C327.898 611.679 330.208 610.468 334.07 608.875L325.321 587.932L356.639 574.847L365.178 595.282C369.157 593.866 372.668 592.728 376.971 592.449L367.034 568.821C365.97 566.431 363.678 564.781 360.953 564.483L359.293 564.293C354.447 563.792 349.483 564.511 344.909 566.423L331.481 572.033C326.224 574.229 324.065 575.645 319.6 579.789L315.169 584.844C313.575 586.68 313.05 589.158 313.838 591.354L323.535 614.303Z" fill="#E3E0F4"/>
</g>
<g clip-path="url(#clip17_15_981)">
<path d="M15.5426 441.803C39.0108 427.091 64.2246 416.556 91.184 410.199L111.919 459.828C88.1516 473.824 62.9378 484.358 36.2779 491.432L15.5426 441.803Z" fill="#E3E0F4"/>
<path d="M24.5348 433.303C28.898 430.679 31.2082 429.468 35.0704 427.875L26.3205 406.932L57.6395 393.847L66.1776 414.282C70.157 412.866 73.6677 411.728 77.9709 411.449L68.0336 387.821C66.9703 385.431 64.6778 383.781 61.9532 383.483L60.2927 383.293C55.4472 382.792 50.4831 383.511 45.9088 385.423L32.4812 391.033C27.2244 393.229 25.0646 394.645 20.6001 398.789L16.1692 403.844C14.5751 405.68 14.0505 408.158 14.8382 410.354L24.5348 433.303Z" fill="#E3E0F4"/>
</g>
<g clip-path="url(#clip18_15_981)">
<path d="M1114.54 343.803C1138.01 329.091 1163.22 318.556 1190.18 312.199L1210.92 361.828C1187.15 375.824 1161.94 386.358 1135.28 393.432L1114.54 343.803Z" fill="#E3E0F4"/>
<path d="M1123.53 335.303C1127.9 332.679 1130.21 331.468 1134.07 329.875L1125.32 308.932L1156.64 295.847L1165.18 316.282C1169.16 314.866 1172.67 313.728 1176.97 313.449L1167.03 289.821C1165.97 287.431 1163.68 285.781 1160.95 285.483L1159.29 285.293C1154.45 284.792 1149.48 285.511 1144.91 287.423L1131.48 293.033C1126.22 295.229 1124.06 296.645 1119.6 300.789L1115.17 305.844C1113.58 307.68 1113.05 310.158 1113.84 312.354L1123.53 335.303Z" fill="#E3E0F4"/>
</g>
<g clip-path="url(#clip19_15_981)">
<path d="M1393.54 514.803C1417.01 500.091 1442.22 489.556 1469.18 483.199L1489.92 532.828C1466.15 546.824 1440.94 557.358 1414.28 564.432L1393.54 514.803Z" fill="#E3E0F4"/>
<path d="M1402.53 506.303C1406.9 503.679 1409.21 502.468 1413.07 500.875L1404.32 479.932L1435.64 466.847L1444.18 487.282C1448.16 485.866 1451.67 484.728 1455.97 484.449L1446.03 460.821C1444.97 458.431 1442.68 456.781 1439.95 456.483L1438.29 456.293C1433.45 455.792 1428.48 456.511 1423.91 458.423L1410.48 464.033C1405.22 466.229 1403.06 467.645 1398.6 471.789L1394.17 476.844C1392.58 478.68 1392.05 481.158 1392.84 483.354L1402.53 506.303Z" fill="#E3E0F4"/>
</g>
<g clip-path="url(#clip20_15_981)">
<path d="M1275.54 77.8032C1299.01 63.0907 1324.22 52.5561 1351.18 46.1995L1371.92 95.828C1348.15 109.824 1322.94 120.358 1296.28 127.432L1275.54 77.8032Z" fill="#E3E0F4"/>
<path d="M1284.53 69.3031C1288.9 66.6793 1291.21 65.4678 1295.07 63.8746L1286.32 42.9324L1317.64 29.847L1326.18 50.2823C1330.16 48.866 1333.67 47.7277 1337.97 47.4492L1328.03 23.8206C1326.97 21.4313 1324.68 19.7815 1321.95 19.4826L1320.29 19.2935C1315.45 18.7925 1310.48 19.5114 1305.91 21.4225L1292.48 27.0328C1287.22 29.2291 1285.06 30.6448 1280.6 34.7892L1276.17 39.8436C1274.58 41.68 1274.05 44.1577 1274.84 46.3541L1284.53 69.3031Z" fill="#E3E0F4"/>
</g>
<g clip-path="url(#clip21_15_981)">
<path d="M1336.53 294.071C1378.26 267.942 1423.09 249.213 1471.01 237.883L1507.73 325.778C1465.47 350.637 1420.64 369.367 1373.25 381.966L1336.53 294.071Z" fill="#EBE8FF"/>
<path d="M1352.53 278.987C1360.28 274.326 1364.39 272.174 1371.26 269.341L1355.76 232.251L1411.45 208.987L1426.57 245.179C1433.64 242.659 1439.88 240.634 1447.53 240.13L1429.93 198.282C1428.05 194.051 1423.98 191.133 1419.14 190.609L1416.19 190.278C1407.58 189.402 1398.75 190.688 1390.62 194.086L1366.75 204.061C1357.4 207.966 1353.56 210.48 1345.62 217.835L1337.73 226.802C1334.9 230.06 1333.96 234.452 1335.35 238.343L1352.53 278.987Z" fill="#EBE8FF"/>
</g>
<g clip-path="url(#clip22_15_981)">
<path d="M896.527 813.071C938.263 786.942 983.091 768.213 1031.01 756.883L1067.73 844.778C1025.47 869.637 980.639 888.367 933.25 900.966L896.527 813.071Z" fill="#EBE8FF"/>
<path d="M912.526 797.987C920.285 793.326 924.393 791.174 931.259 788.341L915.763 751.251L971.445 727.987L986.567 764.179C993.641 761.659 999.882 759.634 1007.53 759.13L989.929 717.282C988.046 713.051 983.976 710.133 979.135 709.609L976.185 709.278C967.577 708.402 958.754 709.688 950.622 713.086L926.748 723.061C917.402 726.966 913.561 729.48 905.618 736.835L897.733 745.802C894.896 749.06 893.957 753.452 895.352 757.343L912.526 797.987Z" fill="#EBE8FF"/>
</g>
<defs>
<clipPath id="clip0_15_981">
<rect width="145.75" height="171.626" fill="white" transform="translate(455 128.189) rotate(-22.6757)"/>
</clipPath>
<clipPath id="clip1_15_981">
<rect width="145.75" height="171.626" fill="white" transform="translate(166 375.189) rotate(-22.6757)"/>
</clipPath>
<clipPath id="clip2_15_981">
<rect width="145.75" height="171.626" fill="white" transform="translate(4 647.189) rotate(-22.6757)"/>
</clipPath>
<clipPath id="clip3_15_981">
<rect width="145.75" height="171.626" fill="white" transform="translate(4 56.1886) rotate(-22.6757)"/>
</clipPath>
<clipPath id="clip4_15_981">
<rect width="145.75" height="171.626" fill="white" transform="translate(518.567 548.09) rotate(-22.0463)"/>
</clipPath>
<clipPath id="clip5_15_981">
<rect width="145.75" height="171.626" fill="white" transform="translate(267 762.189) rotate(-22.6757)"/>
</clipPath>
<clipPath id="clip6_15_981">
<rect width="145.75" height="171.626" fill="white" transform="translate(982 99.1886) rotate(-22.6757)"/>
</clipPath>
<clipPath id="clip7_15_981">
<rect width="145.75" height="171.626" fill="white" transform="translate(803 354.189) rotate(-22.6757)"/>
</clipPath>
<clipPath id="clip8_15_981">
<rect width="145.75" height="171.626" fill="white" transform="translate(1143 476.189) rotate(-22.6757)"/>
</clipPath>
<clipPath id="clip9_15_981">
<rect width="145.75" height="171.626" fill="white" transform="translate(1288 720.189) rotate(-22.6757)"/>
</clipPath>
<clipPath id="clip10_15_981">
<rect width="81.9781" height="96.9059" fill="white" transform="translate(866 575.604) rotate(-22.6757)"/>
</clipPath>
<clipPath id="clip11_15_981">
<rect width="81.9781" height="96.9059" fill="white" transform="translate(1146 798.604) rotate(-22.6757)"/>
</clipPath>
<clipPath id="clip12_15_981">
<rect width="81.9781" height="96.9059" fill="white" transform="translate(594 805.604) rotate(-22.6757)"/>
</clipPath>
<clipPath id="clip13_15_981">
<rect width="81.9781" height="96.9059" fill="white" transform="translate(521 361.604) rotate(-22.6757)"/>
</clipPath>
<clipPath id="clip14_15_981">
<rect width="81.9781" height="96.9059" fill="white" transform="translate(740 118.604) rotate(-22.6757)"/>
</clipPath>
<clipPath id="clip15_15_981">
<rect width="81.9781" height="96.9059" fill="white" transform="translate(264 133.604) rotate(-22.6757)"/>
</clipPath>
<clipPath id="clip16_15_981">
<rect width="81.9781" height="96.9059" fill="white" transform="translate(299 585.604) rotate(-22.6757)"/>
</clipPath>
<clipPath id="clip17_15_981">
<rect width="81.9781" height="96.9059" fill="white" transform="translate(0 404.604) rotate(-22.6757)"/>
</clipPath>
<clipPath id="clip18_15_981">
<rect width="81.9781" height="96.9059" fill="white" transform="translate(1099 306.604) rotate(-22.6757)"/>
</clipPath>
<clipPath id="clip19_15_981">
<rect width="81.9781" height="96.9059" fill="white" transform="translate(1378 477.604) rotate(-22.6757)"/>
</clipPath>
<clipPath id="clip20_15_981">
<rect width="81.9781" height="96.9059" fill="white" transform="translate(1260 40.6036) rotate(-22.6757)"/>
</clipPath>
<clipPath id="clip21_15_981">
<rect width="145.75" height="171.626" fill="white" transform="translate(1309 228.189) rotate(-22.6757)"/>
</clipPath>
<clipPath id="clip22_15_981">
<rect width="145.75" height="171.626" fill="white" transform="translate(869 747.189) rotate(-22.6757)"/>
</clipPath>
</defs>
</svg>
