<svg width="16" height="17" viewBox="0 0 16 17" fill="none" xmlns="http://www.w3.org/2000/svg">
<path d="M14.7556 16.872L9.15556 11.2944C8.71111 11.6485 8.2 11.9289 7.62222 12.1355C7.04444 12.342 6.42963 12.4453 5.77778 12.4453C4.16296 12.4453 2.7963 11.8883 1.67778 10.7743C0.559259 9.66023 0 8.29903 0 6.69067C0 5.08232 0.559259 3.72112 1.67778 2.60707C2.7963 1.49303 4.16296 0.936005 5.77778 0.936005C7.39259 0.936005 8.75926 1.49303 9.87778 2.60707C10.9963 3.72112 11.5556 5.08232 11.5556 6.69067C11.5556 7.33992 11.4519 7.95227 11.2444 8.52774C11.037 9.1032 10.7556 9.61227 10.4 10.0549L16 15.6325L14.7556 16.872ZM5.77778 10.6747C6.88889 10.6747 7.83333 10.2873 8.61111 9.51267C9.38889 8.738 9.77778 7.79734 9.77778 6.69067C9.77778 5.584 9.38889 4.64334 8.61111 3.86867C7.83333 3.094 6.88889 2.70667 5.77778 2.70667C4.66667 2.70667 3.72222 3.094 2.94444 3.86867C2.16667 4.64334 1.77778 5.584 1.77778 6.69067C1.77778 7.79734 2.16667 8.738 2.94444 9.51267C3.72222 10.2873 4.66667 10.6747 5.77778 10.6747Z" fill="#993399"/>
</svg>
